<svg id="Capa_1" enable-background="new 0 0 512 512" height="512" viewBox="0 0 512 512" width="512" xmlns="http://www.w3.org/2000/svg"><g><path d="m460.744 102.313 40.68-40.68c14.076-14.077 14.076-36.98 0-51.058-14.078-14.076-36.979-14.076-51.058 0l-40.68 40.68c-44.565-33.55-97.552-51.255-153.686-51.255-68.379 0-132.666 26.629-181.019 74.981s-74.981 112.64-74.981 181.019c0 56.134 17.705 109.121 51.256 153.687l-40.68 40.68c-6.818 6.819-10.574 15.886-10.574 25.529s3.756 18.709 10.57 25.523c6.812 6.823 15.877 10.581 25.528 10.581 9.657 0 18.727-3.758 25.534-10.576l40.68-40.68c44.565 33.551 97.552 51.256 153.686 51.256 74.323 0 144.876-32.242 193.569-88.46 2.712-3.131 2.372-7.867-.759-10.579-3.13-2.71-7.865-2.373-10.579.759-45.842 52.926-112.263 83.28-182.231 83.28-52.13 0-101.373-16.22-142.966-46.976l16.445-16.445c37.097 26.546 80.695 40.551 126.521 40.551 120.277 0 218.13-97.853 218.13-218.13 0-45.826-14.005-89.424-40.551-126.521l16.445-16.445c30.756 41.593 46.976 90.836 46.976 142.966 0 46.53-13.285 91.691-38.42 130.601-2.248 3.479-1.249 8.122 2.23 10.369 1.258.812 2.668 1.201 4.062 1.201 2.461 0 4.872-1.21 6.307-3.432 26.706-41.34 40.821-89.315 40.821-138.739 0-56.134-17.705-109.121-51.256-153.687zm-445.744 153.687c0-132.888 108.112-241 241-241 52.13 0 101.373 16.22 142.966 46.976l-16.445 16.445c-37.097-26.546-80.695-40.551-126.521-40.551-64.455 0-125.31 28.391-166.959 77.892-2.666 3.169-2.259 7.9.911 10.567 1.406 1.183 3.12 1.761 4.824 1.761 2.137 0 4.26-.908 5.743-2.672 38.793-46.106 95.463-72.548 155.481-72.548 41.831 0 81.67 12.526 115.765 36.307l-37.246 37.246c-.078-.08-.146-.167-.225-.246-5.859-5.86-13.652-9.088-21.944-9.088-5.414 0-10.496 1.446-14.88 3.974v-10.803c0-8.129-3.164-15.778-8.917-21.544-5.751-5.75-13.398-8.916-21.533-8.916-16.455 0-29.902 13.124-30.433 29.458-4.64-2.744-9.942-4.208-15.467-4.208-16.79 0-30.45 13.66-30.45 30.45v8.18c-4.634-2.738-9.935-4.199-15.46-4.199-16.79 0-30.45 13.659-30.45 30.449v146.253l-55.583 55.583c-23.781-34.096-36.307-73.935-36.307-115.766 0-36.306 9.732-71.943 28.145-103.061 2.109-3.564.929-8.165-2.636-10.274-3.562-2.107-8.164-.93-10.274 2.636-19.78 33.428-30.235 71.707-30.235 110.699 0 45.826 14.005 89.424 40.551 126.521l-16.445 16.445c-30.756-41.593-46.976-90.836-46.976-142.966zm175.75 14.192-30.991 30.991v-131.253c0-8.519 6.931-15.449 15.45-15.449 4.13 0 8.011 1.606 10.934 4.529 2.912 2.905 4.517 6.772 4.525 10.891 0 .01-.001.02-.001.03v99.201c0 .361.034.713.083 1.06zm14.92-134.692c0-8.52 6.931-15.45 15.45-15.45 4.122 0 8.005 1.608 10.92 4.517 2.921 2.929 4.53 6.812 4.53 10.934v.001s0 .001 0 .001v88.87l-30.903 30.903zm45.9-25.24c0-8.524 6.931-15.46 15.449-15.46 4.129 0 8.01 1.606 10.921 4.517 2.921 2.928 4.529 6.814 4.529 10.943l.005 68.208-30.904 30.904zm45.902 36.654c.025-8.178 6.688-14.824 14.877-14.824 4.285 0 8.311 1.667 11.323 4.68.083.084.157.175.239.261l-26.437 26.437v-16.504c.001-.017-.002-.033-.002-.05zm161.658 109.086c0 112.006-91.124 203.13-203.13 203.13-41.831 0-81.67-12.526-115.765-36.307l21.705-21.705c15.273 19.613 38.49 31.082 63.77 31.082h50.98c36.772 0 66.689-29.917 66.689-66.69v-1.974l54.938-54.938c6.011-6.023 9.321-14.021 9.321-22.518 0-8.504-3.312-16.499-9.324-22.511-6.011-6.018-14.008-9.331-22.516-9.331s-16.505 3.313-22.514 9.328l-9.906 9.907v-53.796l28.414-28.414c2.929-2.93 2.929-7.678 0-10.607-2.931-2.929-7.679-2.927-10.607 0l-310.163 310.165c-3.977 3.985-9.277 6.179-14.922 6.179-5.639 0-10.935-2.194-14.916-6.184-8.229-8.228-8.229-21.615 0-29.843l439.79-439.79c8.226-8.229 21.615-8.229 29.843 0 8.229 8.228 8.229 21.615 0 29.843l-104.89 104.89c-2.929 2.93-2.929 7.678 0 10.607 2.93 2.928 7.678 2.928 10.607 0l26.289-26.289c23.781 34.096 36.307 73.935 36.307 115.766zm-130.75 32.467-16.74 16.741c-2.929 2.929-2.929 7.678.001 10.606 1.464 1.464 3.384 2.196 5.303 2.196s3.839-.732 5.304-2.197l41.648-41.643c3.178-3.182 7.405-4.933 11.904-4.933s8.727 1.751 11.906 4.936c3.182 3.181 4.934 7.409 4.934 11.906s-1.754 8.73-4.934 11.916l-57.13 57.13c-1.406 1.407-2.196 3.314-2.196 5.304v5.08c0 28.502-23.188 51.69-51.689 51.69h-50.98c-21.216 0-40.65-9.915-53.064-26.788l155.733-155.733z"/></g></svg>