<?xml version="1.0" encoding="iso-8859-1"?>
<!-- Generator: Adobe Illustrator 19.0.0, SVG Export Plug-In . SVG Version: 6.00 Build 0)  -->
<svg version="1.1" id="Capa_1" xmlns="http://www.w3.org/2000/svg" xmlns:xlink="http://www.w3.org/1999/xlink" x="0px" y="0px"
	 viewBox="0 0 480 480" style="enable-background:new 0 0 480 480;" xml:space="preserve">
<g>
	<g>
		<path d="M152,40H8c-4.424,0-8,3.584-8,8v48c0,4.416,3.576,8,8,8h40v328c0,4.416,3.576,8,8,8h48c4.424,0,8-3.584,8-8V104h40
			c4.424,0,8-3.584,8-8V48C160,43.584,156.424,40,152,40z M144,88h-40c-4.424,0-8,3.584-8,8v328H64V96c0-4.416-3.576-8-8-8H16V56
			h128V88z"/>
	</g>
</g>
<g>
	<g>
		<path d="M472,200c-48.52,0-88,39.48-88,88v144c0,4.416,3.576,8,8,8h48c4.424,0,8-3.584,8-8V288c0-13.232,10.768-24,24-24
			c4.424,0,8-3.584,8-8v-48C480,203.584,476.424,200,472,200z M464,248.808c-18.232,3.712-32,19.88-32,39.192v136h-32V288
			c0-37,28.048-67.568,64-71.56V248.808z"/>
	</g>
</g>
<g>
	<g>
		<path d="M288,206.952V184c0-3.032-1.712-5.8-4.424-7.16l-5.12-2.56c12.776-2.272,27.064-7.312,37.792-18.04
			c24.304-24.304,19.448-66.936,19.224-68.744c-0.448-3.656-3.328-6.536-6.984-6.976c-1.808-0.232-44.44-5.088-68.736,19.224
			c-2.728,2.728-5.04,5.712-7.08,8.816c-1.92-5.616-4.872-11.184-9.464-15.784c-15.672-15.672-42.744-12.592-43.888-12.448
			c-3.656,0.44-6.536,3.328-6.984,6.976c-0.136,1.144-3.224,28.216,12.456,43.896c10.664,10.664,26.544,12.624,36,12.76
			c-0.472,4.04-0.688,7.784-0.76,11.104l-20.456-10.224c-2.48-1.232-5.424-1.104-7.784,0.352c-2.36,1.456-3.792,4.032-3.792,6.808
			v54.952c-47.392,16.792-80,62.432-80,113.048c0,66.168,53.832,120,120,120s120-53.832,120-120
			C368,269.384,335.392,223.744,288,206.952z M216.104,119.896c-6.088-6.08-7.832-16.44-8.088-23.856
			c6.904,0.208,17.488,1.664,23.88,8.064c6.088,6.088,7.832,16.448,8.088,23.856C233.08,127.752,222.504,126.296,216.104,119.896z
			 M240,422.144c-13.624-6.392-24-28.6-24-54.144s10.376-47.752,24-54.152V422.144z M240,297.04c-22.968,5.568-40,34.696-40,70.96
			c0,9.872,1.28,19.208,3.576,27.704C196.336,383.576,192,368.44,192,352c0-36.208,20.896-66.264,48-71.264V297.04z M240,264.576
			c-35.944,4.88-64,42.208-64,87.424c0,11.248,1.8,21.968,4.96,31.872C172.792,370.072,168,353.656,168,336
			c0-45.552,31.632-83.136,72-87.56V264.576z M240.048,232.432C190.824,236.84,152,281.56,152,336c0,12.64,2.2,24.712,6.024,35.928
			C149.16,356.624,144,338.92,144,320c0-45.6,30.544-86.544,74.28-99.576c3.392-1.008,5.72-4.128,5.72-7.664v-47.816l16.432,8.216
			L240.048,232.432z M271.072,111.064c13.888-13.896,37.56-15.288,48.888-15.032c0.24,11.44-1.136,35-15.024,48.896
			c-13.912,13.904-37.464,15.248-48.92,15.032C255.76,148.552,257.104,125.032,271.072,111.064z M256,423.592V304v-32v-31.952
			l0.384-58.912L272,188.944v23.816c0,3.536,2.328,6.656,5.72,7.664C321.456,233.456,352,274.4,352,320
			C352,374.648,309.608,419.48,256,423.592z"/>
	</g>
</g>
<g>
	<g>
		<path d="M314.016,348.8c-7.296,16.696-20.512,29.912-37.216,37.216l6.4,14.656c20.408-8.92,36.552-25.072,45.472-45.472
			L314.016,348.8z"/>
	</g>
</g>
<g>
	<g>
		<path d="M335.56,311.192l-15.92,1.608c0.24,2.368,0.36,4.768,0.36,7.2s-0.12,4.832-0.36,7.216c-0.24,2.432-0.6,4.832-1.088,7.192
			l15.688,3.176c0.584-2.88,1.032-5.824,1.32-8.776c0.288-2.904,0.44-5.84,0.44-8.808C336,317.032,335.848,314.096,335.56,311.192z"
			/>
	</g>
</g>
<g>
</g>
<g>
</g>
<g>
</g>
<g>
</g>
<g>
</g>
<g>
</g>
<g>
</g>
<g>
</g>
<g>
</g>
<g>
</g>
<g>
</g>
<g>
</g>
<g>
</g>
<g>
</g>
<g>
</g>
</svg>
